<?xml version="1.0" encoding="UTF-8" standalone="no"?>
<svg width="332px" height="188px" viewBox="0 0 332 188" version="1.1" xmlns="http://www.w3.org/2000/svg" xmlns:xlink="http://www.w3.org/1999/xlink">
    <!-- Generator: Sketch 3.8.3 (29802) - http://www.bohemiancoding.com/sketch -->
    <title>Slice 1</title>
    <desc>Created with Sketch.</desc>
    <defs>
        <polygon id="path-1" points="115.4185 0.027 0.06 0.027 0.06 187.918 230.777 187.918 230.777 0.027 115.4185 0.027"></polygon>
    </defs>
    <g id="Page-1" stroke="none" stroke-width="1" fill="none" fill-rule="evenodd">
        <g id="Sitehost-Logo-SPOT-L-Grey-10%-Portrait">
            <polyline id="Fill-1" fill="#C2422B" points="100.643 0.027 100.643 28.773 118.268 55.13 100.643 81.487 100.643 113.396 131.671 55.13 100.643 0.027"></polyline>
            <polyline id="Fill-2" fill="#E7792B" points="199.764 55.13 100.643 0.027 131.671 55.13 230.777 113.396 199.764 55.13"></polyline>
            <polyline id="Fill-3" fill="#DE4A2A" points="131.671 55.13 100.643 113.396 163.122 76.646 131.671 55.13"></polyline>
            <polyline id="Fill-4" fill="#C2422B" points="230.777 0.027 230.777 28.773 213.151 55.13 230.777 81.487 230.777 113.396 199.764 55.13 230.777 0.027"></polyline>
            <g id="Group-8">
                <mask id="mask-2" fill="white">
                    <use xlink:href="#path-1"></use>
                </mask>
                <g id="Clip-6"></g>
                <polyline id="Fill-5" fill="#DE4A2A" mask="url(#mask-2)" points="230.777 0.027 170.249 35.443 199.764 55.13 230.777 0.027"></polyline>
                <path d="M0,183.293 L3.667,179.66 C6.986,182.054 10.306,183.417 14.616,183.417 C18.381,183.417 20.76,181.971 20.76,179.783 L20.76,179.701 C20.76,177.637 19.372,176.521 12.932,175.283 C5.549,173.797 1.387,171.979 1.387,166.653 L1.387,166.57 C1.387,161.616 6.342,158.188 13.229,158.188 C18.282,158.188 22.295,159.469 25.813,161.822 L22.543,165.662 C19.422,163.721 16.3,162.689 13.129,162.689 C9.563,162.689 7.481,164.217 7.481,166.116 L7.481,166.199 C7.481,168.429 9.067,169.42 15.706,170.741 C23.039,172.227 26.854,174.416 26.854,179.205 L26.854,179.288 C26.854,184.697 21.751,187.918 14.467,187.918 C9.166,187.918 4.162,186.389 0,183.293" id="Fill-7" fill="#DEDDDB" mask="url(#mask-2)"></path>
            </g>
            <polyline id="Fill-9" fill="#DEDDDB" points="82.037 163.308 71.038 163.308 71.038 158.601 99.179 158.601 99.179 163.308 88.18 163.308 88.18 187.505 82.037 187.505 82.037 163.308"></polyline>
            <polyline id="Fill-10" fill="#DEDDDB" points="118.506 158.601 144.22 158.601 144.22 163.143 124.601 163.143 124.601 170.658 141.991 170.658 141.991 175.2 124.601 175.2 124.601 182.963 144.468 182.963 144.468 187.505 118.506 187.505 118.506 158.601"></polyline>
            <polyline id="Fill-11" fill="#DEDDDB" points="163.588 158.601 169.683 158.601 169.683 170.617 186.23 170.617 186.23 158.601 192.325 158.601 192.325 187.505 186.23 187.505 186.23 175.324 169.683 175.324 169.683 187.505 163.588 187.505 163.588 158.601"></polyline>
            <path d="M239.487,173.136 L239.487,173.054 C239.487,167.437 234.582,162.772 227.695,162.772 C220.809,162.772 216.003,167.355 216.003,172.971 L216.003,173.054 C216.003,178.669 220.908,183.335 227.795,183.335 C234.682,183.335 239.487,178.751 239.487,173.136 L239.487,173.136 Z M209.611,173.136 L209.611,173.054 C209.611,164.919 217.143,158.106 227.795,158.106 C238.447,158.106 245.879,164.837 245.879,172.971 L245.879,173.054 C245.879,181.187 238.348,188 227.695,188 C217.043,188 209.611,181.27 209.611,173.136 L209.611,173.136 Z" id="Fill-12" fill="#DEDDDB"></path>
            <path d="M260.574,183.293 L264.24,179.66 C267.56,182.054 270.879,183.417 275.189,183.417 C278.955,183.417 281.333,181.971 281.333,179.783 L281.333,179.701 C281.333,177.637 279.946,176.521 273.505,175.283 C266.123,173.797 261.961,171.979 261.961,166.653 L261.961,166.57 C261.961,161.616 266.916,158.188 273.803,158.188 C278.856,158.188 282.869,159.469 286.387,161.822 L283.117,165.662 C279.995,163.721 276.874,162.689 273.703,162.689 C270.136,162.689 268.055,164.217 268.055,166.116 L268.055,166.199 C268.055,168.429 269.641,169.42 276.279,170.741 C283.612,172.227 287.428,174.416 287.428,179.205 L287.428,179.288 C287.428,184.697 282.324,187.918 275.041,187.918 C269.739,187.918 264.735,186.389 260.574,183.293" id="Fill-13" fill="#DEDDDB"></path>
            <polyline id="Fill-14" fill="#DEDDDB" points="314.276 163.308 303.277 163.308 303.277 158.601 331.42 158.601 331.42 163.308 320.42 163.308 320.42 187.505 314.276 187.505 314.276 163.308"></polyline>
            <polyline id="Fill-15" fill="#DEDDDB" points="46.271 187.505 52.365 187.505 52.365 161.917 46.271 158.605 46.271 187.505"></polyline>
        </g>
    </g>
</svg>